<?xml version="1.0" standalone="no"?>
<!DOCTYPE svg PUBLIC "-//W3C//DTD SVG 20010904//EN"
 "http://www.w3.org/TR/2001/REC-SVG-20010904/DTD/svg10.dtd">
<svg version="1.0" xmlns="http://www.w3.org/2000/svg"
 width="700.000000pt" height="700.000000pt" viewBox="0 0 700.000000 700.000000"
 preserveAspectRatio="xMidYMid meet">
<metadata>
Created by potrace 1.14, written by Peter Selinger 2001-2017
</metadata>
<g transform="translate(0.000000,700.000000) scale(0.100000,-0.100000)"
fill="#000000" stroke="none">
<path d="M1445 6989 c-181 -26 -324 -66 -478 -135 -99 -45 -249 -130 -255
-146 -2 -4 -10 -8 -17 -8 -7 0 -15 -3 -17 -8 -1 -4 -32 -30 -68 -59 -68 -53
-192 -176 -232 -228 -12 -16 -29 -36 -36 -44 -24 -25 -108 -155 -149 -231 -83
-152 -161 -396 -180 -556 -10 -87 -11 -4032 -1 -4135 10 -101 57 -285 103
-400 151 -380 444 -697 808 -872 87 -42 273 -110 327 -120 14 -3 36 -8 50 -11
29 -7 66 -13 135 -24 62 -9 4025 -10 4115 0 36 3 85 11 110 17 25 5 61 13 80
16 56 9 238 74 320 113 261 124 495 326 660 567 52 75 129 224 172 330 38 93
83 275 95 383 11 90 10 4051 0 4127 -12 91 -16 110 -41 209 -91 346 -293 654
-576 875 -36 28 -69 55 -75 59 -26 21 -168 102 -230 132 -134 63 -297 115
-425 135 -25 4 -54 10 -65 13 -31 10 -4063 11 -4130 1z"/>
</g>
</svg>
